<?xml version="1.0" encoding="utf-8"?>
<!-- Generator: Adobe Illustrator 26.0.3, SVG Export Plug-In . SVG Version: 6.00 Build 0)  -->
<svg version="1.1" id="Layer_1" xmlns="http://www.w3.org/2000/svg" xmlns:xlink="http://www.w3.org/1999/xlink" x="0px" y="0px"
	 viewBox="0 0 24 24" style="enable-background:new 0 0 24 24;" xml:space="preserve">
<style type="text/css">
	.st0{fill:#FFFFFF;}
</style>
<path d="M12,1.7c3.5,0,6.3,2.8,6.3,6.3c0,2.2-0.6,2.8-1.5,3.5c-1,0.8-2.2,1.8-2.2,4.6v1.6H9.4v-1.6c0-2.5-1.2-3.6-2.1-4.5
	C6.4,10.8,5.7,10.2,5.7,8C5.7,4.5,8.5,1.7,12,1.7 M12,0.5C7.8,0.5,4.4,3.8,4.4,8c0,5.2,3.7,3.9,3.7,8.1V19h7.7v-2.8
	c0-4.5,3.7-2.7,3.7-8.1C19.6,3.8,16.2,0.5,12,0.5L12,0.5z"/>
<g>
	<line class="st0" x1="15.8" y1="20.7" x2="8.2" y2="20.7"/>
	<rect x="8.2" y="20" width="7.7" height="1.3"/>
</g>
<g>
	<line class="st0" x1="15.8" y1="22.9" x2="8.2" y2="22.9"/>
	<rect x="8.2" y="22.3" width="7.7" height="1.3"/>
</g>
</svg>
