<?xml version="1.0" encoding="utf-8"?>
<!-- Generator: Adobe Illustrator 26.0.3, SVG Export Plug-In . SVG Version: 6.00 Build 0)  -->
<svg version="1.1" id="Layer_1" xmlns="http://www.w3.org/2000/svg" xmlns:xlink="http://www.w3.org/1999/xlink" x="0px" y="0px"
	 viewBox="0 0 24 24" style="enable-background:new 0 0 24 24;" xml:space="preserve">
<style type="text/css">
	.st0{fill:#FFFFFF;}
</style>
<g>
	<rect x="2.7" y="1" class="st0" width="18.6" height="22.1"/>
	<path d="M21.8,23.6H2.2V0.5h19.6V23.6z M3.2,22.6h17.6V1.5H3.2V22.6z"/>
</g>
<path d="M6.4,6.5C5.8,6.5,5.3,6,5.3,5.4s0.5-1.1,1.1-1.1s1.1,0.5,1.1,1.1S7,6.5,6.4,6.5z M6.4,5.3c-0.1,0-0.1,0-0.1,0.1
	c0,0.1,0.2,0.1,0.2,0C6.5,5.3,6.5,5.3,6.4,5.3z"/>
<path d="M17.2,8.6c-0.6,0-1.1-0.5-1.1-1.1s0.5-1.1,1.1-1.1s1.1,0.5,1.1,1.1S17.8,8.6,17.2,8.6z M17.2,7.4c-0.1,0-0.1,0-0.1,0.1
	c0,0.1,0.2,0.1,0.2,0C17.3,7.4,17.3,7.4,17.2,7.4z"/>
<path d="M8.7,16.7c-0.4,0-0.8-0.4-0.8-0.8s0.4-0.8,0.8-0.8c0.4,0,0.8,0.4,0.8,0.8S9.1,16.7,8.7,16.7z M8.7,15.7
	c-0.1,0-0.2,0.1-0.2,0.2c0,0.2,0.4,0.2,0.4,0C8.9,15.8,8.8,15.7,8.7,15.7z"/>
<path d="M18.6,19.1c-0.4,0-0.8-0.4-0.8-0.8s0.4-0.8,0.8-0.8s0.8,0.4,0.8,0.8S19,19.1,18.6,19.1z M18.6,18.1c-0.1,0-0.2,0.1-0.2,0.2
	c0,0.2,0.4,0.2,0.4,0C18.8,18.2,18.7,18.1,18.6,18.1z"/>
<path d="M9.3,8.9c-0.4,0-0.8-0.4-0.8-0.8c0-0.4,0.4-0.8,0.8-0.8c0.4,0,0.8,0.4,0.8,0.8C10.1,8.5,9.7,8.9,9.3,8.9z M9.3,7.9
	C9.2,7.9,9.1,8,9.1,8.1c0,0.2,0.4,0.2,0.4,0C9.5,8,9.4,7.9,9.3,7.9z"/>
<path d="M15.9,18.3c-0.4,0-0.8-0.4-0.8-0.8s0.4-0.8,0.8-0.8s0.8,0.4,0.8,0.8S16.3,18.3,15.9,18.3z M15.9,17.3
	c-0.1,0-0.2,0.1-0.2,0.2c0,0.2,0.4,0.2,0.4,0C16.1,17.4,16,17.3,15.9,17.3z"/>
<path d="M17.2,14.3c-1,0-1.9-0.9-1.9-1.9c0-1,0.9-1.9,1.9-1.9c1,0,1.9,0.9,1.9,1.9C19.1,13.4,18.2,14.3,17.2,14.3z M17.2,11.5
	c-0.5,0-0.9,0.4-0.9,0.9s0.4,0.9,0.9,0.9s0.9-0.4,0.9-0.9S17.7,11.5,17.2,11.5z"/>
<path d="M13.1,23c-1,0-1.9-0.9-1.9-1.9c0-1,0.9-1.9,1.9-1.9c1,0,1.9,0.9,1.9,1.9C15,22.1,14.1,23,13.1,23z M13.1,20.2
	c-0.5,0-0.9,0.4-0.9,0.9s0.4,0.9,0.9,0.9s0.9-0.4,0.9-0.9S13.6,20.2,13.1,20.2z"/>
<path d="M13.2,7.1c-1.2,0-2.2-1-2.2-2.2c0-1.2,1-2.2,2.2-2.2c1.2,0,2.2,1,2.2,2.2C15.4,6.1,14.4,7.1,13.2,7.1z M13.2,3.7
	c-0.7,0-1.2,0.5-1.2,1.2s0.5,1.2,1.2,1.2c0.7,0,1.2-0.5,1.2-1.2S13.9,3.7,13.2,3.7z"/>
<path d="M5.5,20.3c-0.8,0-1.5-0.7-1.5-1.5s0.7-1.5,1.5-1.5S7,18,7,18.8S6.3,20.3,5.5,20.3z M5.5,18.3c-0.3,0-0.5,0.2-0.5,0.5
	s0.2,0.5,0.5,0.5S6,19.1,6,18.8S5.8,18.3,5.5,18.3z"/>
</svg>
