<?xml version="1.0" encoding="utf-8"?>
<!-- Generator: Adobe Illustrator 26.0.3, SVG Export Plug-In . SVG Version: 6.00 Build 0)  -->
<svg version="1.1" id="Layer_1" xmlns="http://www.w3.org/2000/svg" xmlns:xlink="http://www.w3.org/1999/xlink" x="0px" y="0px"
	 viewBox="0 0 24 24" style="enable-background:new 0 0 24 24;" xml:space="preserve">
<style type="text/css">
	.st0{fill:#FFFFFF;}
</style>
<g>
	<path class="st0" d="M9.7,4C4.9,4,1,7.9,1,12.7s3.9,8.7,8.7,8.7s8.7-3.9,8.7-8.7h4.5V4H9.7z"/>
	<path d="M9.7,21.9c-5.1,0-9.2-4.1-9.2-9.2s4.1-9.2,9.2-9.2h13.7v9.7h-4.5C18.6,18,14.6,21.9,9.7,21.9z M9.7,4.5
		c-4.5,0-8.2,3.7-8.2,8.2s3.7,8.2,8.2,8.2s8.2-3.7,8.2-8.2v-0.5h4.5V4.5H9.7z"/>
</g>
<g>
	<circle class="st0" cx="9.8" cy="12.7" r="5.4"/>
	<path d="M9.8,18.3c-3.1,0-5.6-2.5-5.6-5.6C4.1,9.6,6.7,7,9.8,7c3.1,0,5.7,2.5,5.7,5.7C15.5,15.8,12.9,18.3,9.8,18.3z M9.8,7.5
		c-2.8,0-5.1,2.3-5.1,5.2s2.3,5.1,5.1,5.1s5.2-2.3,5.2-5.1S12.6,7.5,9.8,7.5z"/>
</g>
</svg>
