<?xml version="1.0" encoding="utf-8"?>
<!-- Generator: Adobe Illustrator 26.0.3, SVG Export Plug-In . SVG Version: 6.00 Build 0)  -->
<svg version="1.1" id="Layer_1" xmlns="http://www.w3.org/2000/svg" xmlns:xlink="http://www.w3.org/1999/xlink" x="0px" y="0px"
	 viewBox="0 0 24 24" style="enable-background:new 0 0 24 24;" xml:space="preserve">
<style type="text/css">
	.st0{fill:#FFFFFF;}
</style>
<g>
	<rect x="4" y="1" class="st0" width="16.7" height="21.8"/>
	<path d="M21.2,23.3H3.5V0.5h17.7V23.3z M4.5,22.3h15.7V1.5H4.5V22.3z"/>
</g>
<g>
	<rect x="6.4" y="3.2" class="st0" width="12" height="17.5"/>
	<path d="M18.7,21H6.1V3h12.5V21z M6.6,20.5h11.5v-17H6.6V20.5z"/>
</g>
<g>
	<rect x="4.2" y="0.8" transform="matrix(0.55 -0.8352 0.8352 0.55 0.9231 4.2633)" width="0.5" height="1"/>
	<path d="M18.9,11.1l-1.6-1l0.3-0.4l1.6,1L18.9,11.1z M16.6,9.6l-1.6-1l0.3-0.4l1.6,1L16.6,9.6z M14.2,8l-1.6-1l0.3-0.4l1.6,1
		L14.2,8z M11.8,6.4l-1.6-1L10.5,5l1.6,1L11.8,6.4z M9.4,4.9l-1.6-1l0.3-0.4l1.6,1L9.4,4.9z M7.1,3.3l-1.6-1l0.3-0.4l1.6,1L7.1,3.3z
		"/>
	<rect x="20" y="11.2" transform="matrix(0.55 -0.8352 0.8352 0.55 -0.6644 22.2167)" width="0.5" height="1"/>
</g>
<g>
	<rect x="3.9" y="22.3" transform="matrix(0.8398 -0.5429 0.5429 0.8398 -11.5231 6.0092)" width="1" height="0.5"/>
	<path d="M5.8,22l-0.3-0.4l1.6-1l0.3,0.4L5.8,22z M8.1,20.4L7.9,20l1.6-1l0.3,0.4L8.1,20.4z M10.5,18.9l-0.3-0.4l1.6-1l0.3,0.4
		L10.5,18.9z M12.9,17.4l-0.3-0.4l1.6-1l0.3,0.4L12.9,17.4z M15.3,15.8L15,15.4l1.6-1l0.3,0.4L15.3,15.8z M17.6,14.3l-0.3-0.4l1.6-1
		l0.3,0.4L17.6,14.3z"/>
	<rect x="19.8" y="12" transform="matrix(0.8398 -0.5429 0.5429 0.8398 -3.4132 12.9769)" width="1" height="0.5"/>
</g>
</svg>
