<?xml version="1.0" encoding="utf-8"?>
<!-- Generator: Adobe Illustrator 26.0.3, SVG Export Plug-In . SVG Version: 6.00 Build 0)  -->
<svg version="1.1" id="Layer_1" xmlns="http://www.w3.org/2000/svg" xmlns:xlink="http://www.w3.org/1999/xlink" x="0px" y="0px"
	 viewBox="0 0 24 24" style="enable-background:new 0 0 24 24;" xml:space="preserve">
<style type="text/css">
	.st0{fill:#FFFFFF;}
</style>
<rect x="3.3" y="1.7" class="st0" width="17.4" height="20.6"/>
<polygon points="21.2,22.8 2.8,22.8 2.8,20.3 3.8,20.3 3.8,21.8 20.2,21.8 20.2,20.2 21.2,20.2 "/>
<polygon points="3.8,3.8 2.8,3.8 2.8,1.2 21.2,1.2 21.2,3.6 20.2,3.6 20.2,2.2 3.8,2.2 "/>
<polygon points="24,19.3 17.7,19.3 5.7,7.5 0,7.5 0,5.5 6.5,5.5 18.5,17.3 24,17.3 "/>
<polygon points="6.5,19.3 0,19.3 0,17.3 5.7,17.3 17.7,5.5 24,5.5 24,7.5 18.5,7.5 "/>
<rect x="20.2" y="9.2" width="1" height="7"/>
<rect x="2.8" y="9.2" width="1" height="7"/>
</svg>
