<?xml version="1.0" encoding="utf-8"?>
<!-- Generator: Adobe Illustrator 26.0.3, SVG Export Plug-In . SVG Version: 6.00 Build 0)  -->
<svg version="1.1" id="Layer_1" xmlns="http://www.w3.org/2000/svg" xmlns:xlink="http://www.w3.org/1999/xlink" x="0px" y="0px"
	 viewBox="0 0 24 24" style="enable-background:new 0 0 24 24;" xml:space="preserve">
<style type="text/css">
	.st0{fill:none;stroke:#8A8B9E;stroke-width:2;stroke-miterlimit:10;}
	.st1{fill:none;stroke:#8A8B9E;stroke-miterlimit:10;}
	.st2{fill:none;stroke:#8A8B9E;stroke-width:3;stroke-miterlimit:10;}
	.st3{fill:#FFFFFF;}
</style>
<g>
	<path class="st0" d="M53,432h-9.3c-1.5,0-2.8-1.3-2.8-2.8v-20c0-1.5,1.3-2.8,2.8-2.8H53c1.5,0,2.8,1.3,2.8,2.8v20
		C55.8,430.7,54.6,432,53,432z"/>
	<line class="st1" x1="41" y1="413.9" x2="55.8" y2="413.9"/>
	<line class="st1" x1="43.1" y1="408.4" x2="43.1" y2="412.2"/>
	<line class="st1" x1="43.1" y1="415.1" x2="43.1" y2="425"/>
	<line class="st2" x1="43.1" y1="433.5" x2="43.1" y2="432"/>
	<line class="st2" x1="54.2" y1="433.5" x2="54.2" y2="432"/>
</g>
<rect x="4.3" y="1.3" class="st3" width="13.9" height="20.7"/>
<path d="M18.7,22.5H3.8V0.8h14.9V22.5z M4.8,21.5h12.9V1.8H4.8V21.5z"/>
<rect x="5.9" y="22" width="1" height="2"/>
<rect x="16" y="22" width="1" height="2"/>
<rect x="4.3" y="8.2" width="13.9" height="1"/>
<rect x="6.4" y="2.8" width="1" height="4.2"/>
<rect x="6.4" y="10.4" width="1" height="9.1"/>
</svg>
