<?xml version="1.0" encoding="utf-8"?>
<!-- Generator: Adobe Illustrator 26.0.3, SVG Export Plug-In . SVG Version: 6.00 Build 0)  -->
<svg version="1.1" id="Layer_1" xmlns="http://www.w3.org/2000/svg" xmlns:xlink="http://www.w3.org/1999/xlink" x="0px" y="0px"
	 viewBox="0 0 24 24" style="enable-background:new 0 0 24 24;" xml:space="preserve">
<style type="text/css">
	.st0{fill:#FFFFFF;}
</style>
<g>
	<circle class="st0" cx="12.1" cy="11.9" r="11.3"/>
	<path d="M12.1,23.7c-6.5,0-11.8-5.3-11.8-11.8S5.6,0.2,12.1,0.2S23.9,5.5,23.9,12S18.5,23.7,12.1,23.7z M12.1,1.2
		C6.1,1.2,1.3,6,1.3,11.9s4.8,10.8,10.8,10.8c5.9,0,10.8-4.8,10.8-10.8C22.8,6,18,1.2,12.1,1.2z"/>
</g>
<path class="st0" d="M15,11.6c0.8-0.4,1.6-1,2.4-1.7c1.9-1.9,2.8-4.3,1.9-5.2c-0.2-0.2-0.5-0.3-1-0.3c-0.3,0-0.7,0.1-1.1,0.2
	c-1,0.4-2.1,1.1-3.1,2c-0.7,0.7-1.3,1.5-1.7,2.3c0,0,0,0.1,0.1,0.1C13.8,9.2,14.8,10.3,15,11.6z"/>
<path d="M14,6.5c2.1-2.1,4.5-3,5.5-2s0.1,3.4-2,5.5c-0.8,0.8-1.6,1.4-2.4,1.8c0.1,0.1,0.2,0.1,0.3,0.2c0.7-0.4,1.5-1,2.3-1.7
	c2.2-2.2,3-4.8,1.9-5.9c-0.5-0.5-1.5-0.6-2.6-0.2c-1,0.4-2.2,1.2-3.2,2.2c-0.7,0.7-1.3,1.4-1.7,2.1c0,0.1,0.1,0.2,0.1,0.2
	C12.7,8,13.3,7.2,14,6.5z"/>
<path d="M14.1,6.6c1-0.9,2.1-1.6,3.1-2c0.4-0.1,0.8-0.2,1.1-0.2c0.5,0,0.8,0.1,1,0.3c0.9,0.9,0,3.3-1.9,5.2
	c-0.8,0.8-1.6,1.3-2.4,1.7c0,0,0,0,0,0.1c0.1,0,0.2,0.1,0.2,0.1c0.8-0.4,1.6-1,2.4-1.8c2.1-2.1,3-4.5,2-5.5S16.1,4.4,14.1,6.6
	c-0.8,0.6-1.4,1.4-1.8,2.2c0,0,0,0.1,0.1,0.1C12.8,8.1,13.4,7.3,14.1,6.6z"/>
<path class="st0" d="M12.3,14.8c0.4,0.8,1,1.7,1.8,2.5c1.9,1.9,4.3,2.8,5.2,1.9c0.9-0.9,0-3.2-1.9-5.2c-0.8-0.8-1.6-1.4-2.4-1.7
	c0,0,0,0,0,0C14.8,13.6,13.7,14.7,12.3,14.8z"/>
<path d="M15.5,12c-0.1,0.1-0.3,0.1-0.4,0.2c0.8,0.4,1.6,1,2.3,1.8c2.1,2.1,3,4.5,2,5.5c-1,1-3.4,0.1-5.5-2c-0.8-0.8-1.4-1.7-1.8-2.5
	c0,0.1-0.1,0.2-0.1,0.2c0.4,0.8,1,1.6,1.8,2.4c1.5,1.5,3.2,2.4,4.5,2.4c0.5,0,1-0.1,1.3-0.4c1.1-1.1,0.3-3.7-1.9-5.9
	C17,12.9,16.3,12.4,15.5,12z"/>
<path d="M17.4,14c1.9,2,2.8,4.3,1.9,5.2c-0.9,0.9-3.3,0-5.2-1.9c-0.8-0.8-1.4-1.7-1.8-2.5c0,0-0.1,0-0.1,0c0,0.1-0.1,0.1-0.1,0.2
	c0.4,0.8,1,1.7,1.8,2.5c2.1,2.1,4.5,3,5.5,2C20.5,18.5,19.6,16,17.4,14c-0.7-0.8-1.5-1.4-2.2-1.8c-0.1,0-0.1,0.1-0.2,0.1
	C15.8,12.6,16.6,13.2,17.4,14z"/>
<path class="st0" d="M9.3,12.4c-0.9,0.4-1.9,1.1-2.9,2c-1,1-1.7,2.1-2,3.1c-0.3,0.9-0.3,1.7,0.1,2.1C4.9,20,5.7,20,6.6,19.7
	c1-0.4,2.1-1.1,3.1-2c0.9-0.9,1.6-2,2-2.9C10.5,14.6,9.5,13.6,9.3,12.4z"/>
<path d="M11.8,14.8c-0.4,0.9-1.1,2-2,2.9c-2.1,2.1-4.5,3-5.5,2c-1-1-0.1-3.4,2-5.5c1-1,2-1.7,3-2.1c0,0,0-0.1,0-0.1c0,0,0,0-0.1,0
	c-1,0.4-2.1,1.1-3.1,2.1c-1,1-1.8,2.1-2.2,3.2c-0.4,1.1-0.3,2.1,0.2,2.6c0.3,0.3,0.8,0.5,1.3,0.5c0.4,0,0.9-0.1,1.5-0.1
	c1-0.4,2.2-1.2,3.2-2.2c0.9-0.9,1.5-1.9,1.9-2.8C12,15.1,11.9,14.9,11.8,14.8C11.8,14.8,11.8,14.8,11.8,14.8z"/>
<path d="M9.7,17.7c-1,0.9-2.1,1.6-3.1,2C5.7,20,4.9,20,4.5,19.6c-0.4-0.4-0.4-1.2-0.1-2.1c0.3-1,1-2.1,2-3.1c0.9-0.9,1.9-1.6,2.9-2
	c0-0.1,0-0.2,0-0.3c-1,0.4-2,1.1-3,2.1c-2.1,2.1-3,4.5-2,5.5C5.2,20.7,7.7,19.8,9.7,17.7c1-1,1.7-2,2.1-2.9c0,0-0.1,0-0.1,0
	C11.3,15.7,10.6,16.8,9.7,17.7z"/>
<path class="st0" d="M11.9,9c-0.4-0.9-1-1.8-1.8-2.6C9.2,5.4,8,4.8,7,4.4C6.6,4.3,6.2,4.2,5.9,4.2c-0.4,0-0.7,0.1-1,0.3
	C4.5,4.9,4.5,5.7,4.8,6.6c0.4,1,1.1,2.1,2,3.1c0.7,0.8,1.6,1.4,2.4,1.7C9.5,10.1,10.5,9.1,11.9,9z"/>
<path d="M9.2,11.9c0-0.1,0-0.2,0-0.2c-0.8-0.4-1.7-1-2.5-1.8c-2.1-2.1-3-4.5-2-5.5c1-1,3.4-0.1,5.5,2c0.8,0.8,1.4,1.6,1.8,2.4
	c0-0.1,0.1-0.1,0.1-0.2c-0.4-0.8-1.1-1.6-1.8-2.4C9.4,5,8.3,4.3,7.2,3.9C6,3.5,5.1,3.6,4.6,4.2C4,4.7,3.9,5.6,4.3,6.8
	C4.7,7.9,5.5,9,6.5,10C7.3,10.8,8.3,11.5,9.2,11.9C9.2,11.9,9.2,11.9,9.2,11.9C9.2,11.9,9.2,11.9,9.2,11.9z"/>
<path d="M6.8,9.7c-0.9-1-1.6-2.1-2-3.1C4.5,5.7,4.5,4.9,4.9,4.5c0.3-0.2,0.6-0.3,1-0.3c0.3,0,0.7,0.1,1.1,0.2c1,0.4,2.2,1,3.1,2
	c0.8,0.8,1.4,1.8,1.8,2.6c0,0,0.1,0,0.1,0c0-0.1,0.1-0.2,0.1-0.3c-0.4-0.8-1-1.6-1.8-2.4c-2.1-2.1-4.5-3-5.5-2c-1,1-0.1,3.4,2,5.5
	c0.8,0.8,1.7,1.4,2.5,1.8c0-0.1,0-0.1,0-0.2C8.4,11.1,7.5,10.5,6.8,9.7z"/>
<path d="M15.2,11.8c-0.1,0-0.2-0.1-0.2-0.1c0,0,0,0,0-0.1c-0.1-1.3-1.2-2.4-2.5-2.6c0,0,0-0.1-0.1-0.1c0,0,0-0.1-0.1-0.1
	c0-0.1-0.1-0.2-0.1-0.2c0,0.1-0.1,0.1-0.1,0.2C12,8.8,12,8.9,12,9c0,0-0.1,0-0.1,0c-1.3,0.1-2.4,1.1-2.6,2.4c0,0.1,0,0.1,0,0.2
	c0,0.1,0,0.2,0,0.2c0,0,0,0,0,0c0,0,0,0-0.1,0c0,0,0,0,0.1,0c0,0,0,0.1,0,0.1c0,0.1,0,0.2,0,0.3c0.2,1.2,1.2,2.2,2.4,2.3
	c0,0,0.1,0,0.1,0c0,0,0,0,0,0c0.1,0.2,0.1,0.3,0.2,0.5c0-0.1,0.1-0.2,0.1-0.2c0-0.1,0.1-0.2,0.1-0.2c0,0,0.1,0,0.1,0
	c1.4-0.1,2.5-1.2,2.6-2.5c0,0,0,0,0,0c0.1,0,0.1-0.1,0.2-0.1c0.1-0.1,0.3-0.1,0.4-0.2C15.4,11.9,15.3,11.9,15.2,11.8z"/>
<path d="M11.9,20.8c-1.5,0-3.1-0.4-4.4-1.2L7.9,19c1.9,1.1,4.5,1.4,6.6,0.6l0.2,0.7C13.9,20.7,12.9,20.8,11.9,20.8z"/>
<path d="M16.2,4.8c-1.9-1.1-4-1.4-5.8-0.9l-0.2-0.7c2-0.5,4.3-0.1,6.4,1L16.2,4.8z"/>
<circle class="st0" cx="12.1" cy="11.9" r="2.4"/>
</svg>
