<?xml version="1.0" encoding="utf-8"?>
<!-- Generator: Adobe Illustrator 26.0.3, SVG Export Plug-In . SVG Version: 6.00 Build 0)  -->
<svg version="1.1" id="Layer_1" xmlns="http://www.w3.org/2000/svg" xmlns:xlink="http://www.w3.org/1999/xlink" x="0px" y="0px"
	 viewBox="0 0 24 24" style="enable-background:new 0 0 24 24;" xml:space="preserve">
<style type="text/css">
	.st0{fill:#FFFFFF;}
</style>
<g>
	<path class="st0" d="M8.5,12.8c0,1.9,1.6,3.5,3.5,3.5s3.5-1.6,3.5-3.5C15.5,12.8,8.5,12.8,8.5,12.8z"/>
	<path d="M12,16.8c-2.2,0-4-1.8-4-4v-0.5h8v0.5C16,15,14.2,16.8,12,16.8z M9,13.3c0.2,1.4,1.5,2.5,3,2.5c1.5,0,2.7-1.1,3-2.5H9z"/>
</g>
<g>
	<path class="st0" d="M22.6,12.8c0-5.9-4.7-10.6-10.6-10.6S1.4,6.9,1.4,12.8H22.6z"/>
	<path d="M23.1,13.3H0.9v-0.5C0.9,6.6,5.8,1.7,12,1.7c6.2,0,11.1,4.9,11.1,11.1V13.3z M1.9,12.3h20.2C21.8,6.9,17.5,2.7,12,2.7
		S2.2,6.9,1.9,12.3z"/>
</g>
<rect x="11.5" y="18" width="1" height="4.6"/>
<rect x="16.6" y="15.7" transform="matrix(0.7071 -0.7071 0.7071 0.7071 -7.7404 17.4136)" width="1" height="4.7"/>
<rect x="4.1" y="17.6" transform="matrix(0.7071 -0.7071 0.7071 0.7071 -10.8743 9.8476)" width="4.7" height="1"/>
</svg>
